<svg width="54" height="51" viewBox="0 0 54 51" fill="none" xmlns="http://www.w3.org/2000/svg">
<path d="M35.4351 5.6665H9.25451C4.16244 5.6665 0 9.89314 0 15.0543V41.612C0 46.7774 4.16662 50.9998 9.25451 50.9998H35.4351C40.5272 50.9998 44.6897 46.7732 44.6897 41.612V15.0586C44.6938 9.89314 40.5272 5.6665 35.4351 5.6665Z" fill="#6FCF97"/>
<path d="M36.8256 31.2219C36.1891 24.3021 29.0116 20.2921 26.8718 18.4741C24.8994 16.7961 23.8358 14.6 23.685 12.3614C23.6641 12.0428 23.4045 11.7964 23.0862 11.7964H21.7043C21.3902 11.7964 21.1264 12.0428 21.1055 12.3614C20.9506 14.6 19.8911 16.7961 17.9188 18.4741C15.7789 20.2964 8.60144 24.3064 7.96493 31.2219C7.3661 37.7637 10.7706 44.6452 22.3953 44.6452C34.0157 44.6452 37.4244 37.7637 36.8256 31.2219ZM12.0855 31.3536C12.0855 30.4701 12.7974 29.7479 13.6726 29.7479C15.1633 29.7479 16.6122 31.1922 16.6709 31.2517L16.7672 31.3494L16.6709 31.4471C16.6081 31.5065 15.1633 32.9551 13.6726 32.9551C12.8016 32.9551 12.0855 32.2372 12.0855 31.3536ZM18.1909 35.2914C18.1909 35.3764 18.1784 37.4323 17.1231 38.4985C16.8132 38.8129 16.4071 38.9701 16.0009 38.9701C15.5947 38.9701 15.1885 38.8129 14.8786 38.5028C14.2588 37.8783 14.2588 36.8589 14.8786 36.2344C15.9339 35.1682 17.969 35.1597 18.0528 35.1597H18.1909V35.2914ZM18.5804 27.7727H18.4422C18.3543 27.7727 16.3233 27.7599 15.268 26.6979C14.9665 26.3963 14.8032 25.9928 14.8032 25.5638C14.8032 25.1347 14.9665 24.7312 15.268 24.4296C15.5695 24.128 15.9674 23.9581 16.3903 23.9581C16.8132 23.9581 17.2152 24.1237 17.5126 24.4296C18.5678 25.4958 18.5804 27.5475 18.5804 27.6367V27.7727ZM22.3953 41.642C21.5201 41.642 20.804 40.9241 20.804 40.0363C20.804 38.5325 22.2361 37.0713 22.2948 37.0075L22.3911 36.9098L22.4874 37.0075C22.5502 37.067 23.9782 38.5325 23.9782 40.0363C23.9823 40.9198 23.2705 41.642 22.3953 41.642ZM22.3953 33.6899C21.5201 33.6899 20.804 32.9721 20.804 32.0842C20.804 30.5805 22.2361 29.1192 22.2948 29.0555L22.3911 28.9578L22.4874 29.0555C22.5502 29.115 23.9782 30.5805 23.9782 32.0842C23.9823 32.9678 23.2705 33.6899 22.3953 33.6899ZM22.4916 25.4278L22.3953 25.5255L22.2989 25.4278C22.2361 25.3684 20.8082 23.9028 20.8082 22.3991C20.8082 21.5155 21.5201 20.7934 22.3994 20.7934C23.2746 20.7934 23.9865 21.5113 23.9865 22.3991C23.9823 23.9071 22.5544 25.3684 22.4916 25.4278ZM26.5284 27.6325C26.5284 27.5475 26.5409 25.4915 27.5962 24.4253C27.8977 24.1237 28.2955 23.9538 28.7185 23.9538C29.1414 23.9538 29.5434 24.1195 29.8407 24.4253C30.1423 24.7269 30.3056 25.1305 30.3056 25.5595C30.3056 25.9885 30.1423 26.3921 29.8407 26.6937C28.7855 27.7599 26.7503 27.7684 26.6666 27.7684H26.5284V27.6325ZM29.8407 38.4985C29.5392 38.8001 29.1414 38.9701 28.7185 38.9701C28.2955 38.9701 27.8935 38.8044 27.5962 38.4985C26.5409 37.4323 26.5284 35.3806 26.5284 35.2914V35.1512H26.6666C26.7545 35.1512 28.7855 35.164 29.8407 36.2259C30.4605 36.8546 30.4605 37.8741 29.8407 38.4985ZM31.0426 32.9551C29.5518 32.9551 28.1029 31.5108 28.0443 31.4471L27.948 31.3494L28.0443 31.2517C28.1071 31.1922 29.5518 29.7479 31.0426 29.7479C31.4655 29.7479 31.8675 29.9136 32.1648 30.2194C32.4622 30.5253 32.6297 30.9246 32.6297 31.3536C32.6297 32.2372 31.9178 32.9551 31.0426 32.9551Z" fill="white"/>
<path d="M42.8275 21.7125C48.4784 21.7125 53.0593 17.0656 53.0593 11.3333C53.0593 5.60102 48.4784 0.954102 42.8275 0.954102C37.1766 0.954102 32.5957 5.60102 32.5957 11.3333C32.5957 17.0656 37.1766 21.7125 42.8275 21.7125Z" fill="#6FCF97"/>
<path d="M42.8277 22.6667C36.6679 22.6667 31.6553 17.5818 31.6553 11.3333C31.6553 5.08487 36.6679 0 42.8277 0C48.9874 0 54.0001 5.08487 54.0001 11.3333C54.0001 17.5818 48.9874 22.6667 42.8277 22.6667ZM42.8277 1.9141C37.706 1.9141 33.5365 6.14374 33.5365 11.3392C33.5365 16.5346 37.706 20.7642 42.8277 20.7642C47.9493 20.7642 52.1189 16.5346 52.1189 11.3392C52.1189 6.14374 47.9493 1.9141 42.8277 1.9141Z" fill="white"/>
<path d="M48.3165 7.28971C47.806 6.77192 46.9801 6.77192 46.4697 7.28971L41.2219 12.584L39.0597 10.4023C38.5492 9.88451 37.7234 9.88451 37.2129 10.4023C36.7025 10.9201 36.7025 11.7521 37.2129 12.2699L40.2985 15.3825C40.5509 15.6384 40.8892 15.7664 41.2219 15.7664C41.5545 15.7664 41.8929 15.6384 42.1453 15.3825L48.3165 9.15145C48.8269 8.63947 48.8269 7.80169 48.3165 7.28971Z" fill="white"/>
</svg>
